# AST/ASF file generated using VICON BodyLanguage
# -----------------------------------------------
:version 1.10
:name VICON
:units
  mass 1.0
  length 0.45
  angle deg
:documentation
   .ast/.asf automatically generated from VICON data using
   VICON BodyBuilder and BodyLanguage model FoxedUp or BRILLIANT.MOD
:root
   order TX TY TZ RX RY RZ
   axis XYZ
   position 0 0 0  
   orientation 0 0 0 
:bonedata
  begin
     id 1 
     name lhipjoint
     direction 0.722297 -0.617336 0.311742 
     length 2.6635 
     axis 0 0 0  XYZ
  end
  begin
     id 2 
     name lfemur
     direction 0.34202 -0.939693 0  
     length 7.39349  
     axis 0 0 20  XYZ
    dof rx ry rz
    limits (-160.0 20.0)
           (-70.0 70.0)
           (-60.0 70.0)
  end
  begin
     id 3 
     name ltibia
     direction 0.34202 -0.939693 0   
     length 7.36294   
     axis 0 0 20   XYZ
    dof rx
    limits (-10.0 170.0)
  end
  begin
     id 4 
     name lfoot
     direction 0.104879 -0.288152 0.951824   
     length 2.16981   
     axis -90 7.62852e-016 20   XYZ
    dof rx rz
    limits (-45.0 90.0)
           (-70.0 20.0)
  end
  begin
     id 5 
     name ltoes
     direction 1.53586e-011 -4.21895e-011 1   
     length 1.08218   
     axis -90 7.62852e-016 20   XYZ
    dof rx
    limits (-90.0 20.0)
  end
  begin
     id 6 
     name rhipjoint
     direction -0.75102 -0.589393 0.297631   
     length 2.78977  
     axis 0 0 0  XYZ 
  end
  begin
     id 7 
     name rfemur
     direction -0.34202 -0.939693 0   
     length 7.46076   
     axis 0 0 -20   XYZ
    dof rx ry rz
    limits (-160.0 20.0)
           (-70.0 70.0)
           (-70.0 60.0)
  end
  begin
     id 8 
     name rtibia
     direction -0.34202 -0.939693 0   
     length 7.31726   
     axis 0 0 -20   XYZ
    dof rx
    limits (-10.0 170.0)
 end
 begin
     id 9 
     name rfoot
     direction -0.107991 -0.296704 0.948844   
     length 2.09388  
     axis -90 -7.62852e-016 -20   XYZ
    dof rx rz
    limits (-45.0 90.0)
           (-20.0 70.0)
  end
  begin
     id 10 
     name rtoes
     direction -1.53559e-011 -4.21911e-011 1   
     length 1.04433   
     axis -90 -7.62852e-016 -20   XYZ
    dof rx
    limits (-90.0 20.0)
  end
  begin
     id 11 
     name lowerback
     direction 0.0165164 0.98272 0.184358   
     length 1.71896   
     axis 0 0 0   XYZ
    dof rx ry rz
    limits (-20.0 45.0)
           (-30.0 30.0)
           (-30.0 30.0)
  end
  begin
     id 12 
     name upperback
     direction -0.00887249 0.992297 0.123566   
     length 1.71504   
     axis 0 0 0   XYZ
    dof rx ry rz
    limits (-20.0 45.0)
           (-30.0 30.0)
           (-30.0 30.0)
  end
  begin
     id 13 
     name thorax
     direction -0.0157026 0.998908 0.0440032   
     length 1.77022   
     axis 0 0 0   XYZ
    dof rx ry rz
    limits (-20.0 45.0)
           (-30.0 30.0)
           (-30.0 30.0)
  end
  begin
     id 14 
     name lowerneck
     direction -0.0238856 0.998137 0.0561411   
     length 1.89341   
     axis 0 0 0   XYZ
    dof rx ry rz
    limits (-20.0 45.0)
           (-30.0 30.0)
           (-30.0 30.0)
  end
  begin
     id 15 
     name upperneck
     direction 0.0276574 0.952253 -0.304056   
     length 1.86999   
     axis 0 0 0   XYZ
    dof rx ry rz
    limits (-20.0 45.0)
           (-30.0 30.0)
           (-30.0 30.0)
  end
  begin
     id 16
     name head
     direction 0.00800083 0.994258 -0.106712  
     length 1.91492  
     axis 0 0 0   XYZ
    dof rx ry rz
    limits (-20.0 45.0)
           (-30.0 30.0)
           (-30.0 30.0)
  end
  begin
     id 17 
     name lclavicle
     direction 0.97203 0.225407 0.06595  
     length 3.34889  
     axis 0 0 0   XYZ
    dof ry rz
    limits (-20.0 10.0)
           (0.0 20.0)
  end
  begin
     id 18 
     name lhumerus
     direction 1 -4.48973e-011 2.20267e-027   
     length 4.85645   
     axis 180 -30 -90   XYZ
    dof rx ry rz
    limits (-60.0 90.0)
           (-90.0 90.0)
           (-90.0 90.0)
  end
  begin
     id 19
     name lradius
     direction 1 -4.4897e-011 4.60472e-027   
     length 2.79874   
     axis 180 -30 -90   XYZ
    dof rx
    limits (-10.0 170.0)
  end
  begin
     id 20
     name lwrist
     direction 1 -4.48952e-011 1.14928e-026   
     length 1.39937   
     axis -6.29373e-015 90 90   XYZ
    dof ry
    limits (-180.0 0.0)
 end
  begin
     id 21 
     name lhand
     direction 1 -4.48967e-011 2.29886e-026   
     length 0.573398   
     axis -1.46689e-014 90 90   XYZ
    dof rx rz
    limits (-90.0 90.0)
           (-45.0 45.0)
  end
  begin
     id 22 
     name lfingers
     direction 1 -4.48955e-011 4.59726e-026   
     length 0.462289   
     axis -2.93383e-014 90 90   XYZ
    dof rx
    limits (0.0 90.0)
  end
  begin
     id 23
     name lthumb
     direction 0.707107 -6.34866e-011 0.707107   
     length 0.663757   
     axis -90 45 5.69224e-014   XYZ
    dof rx rz
    limits (-45.0 45.0)
           (-45.0 45.0)
  end
  begin
     id 24 
     name rclavicle
     direction -0.981571 0.157346 0.108443   
     length 3.35257  
     axis 0 0 0   XYZ 
    dof ry rz
    limits (-10.0 20.0)
           (-20.0 0.0)
  end
  begin
     id 25 
     name rhumerus
     direction -1 -4.48967e-011 8.58308e-029  
     length 4.67018   
     axis 180 30 90   XYZ
    dof rx ry rz
    limits (-90.0 60.0)
           (-90.0 90.0)
           (-90.0 90.0)
  end
  begin
     id 26 
     name rradius
     direction -1 -4.48958e-011 4.52548e-027   
     length 2.65534   
     axis 180 30 90   XYZ
    dof rx
    limits (-10.0 170.0)
  end
  begin
     id 27 
     name rwrist
     direction -1 -4.48977e-011 1.14952e-026   
     length 1.32767   
     axis -6.29373e-015 -90 -90   XYZ
    dof ry
    limits (-180.0 0.0)
  end
  begin
     id 28
     name rhand
     direction -1 -4.48924e-011 2.29804e-026   
     length 0.594069   
     axis -1.46689e-014 -90 -90   XYZ
    dof rx rz
    limits (-90.0 90.0)
           (-45.0 45.0)
  end
  begin
     id 29
     name rfingers
     direction -1 -4.48998e-011 4.59888e-026   
     length 0.478954   
     axis -2.93383e-014 -90 -90   XYZ
    dof rx
    limits (0.0 90.0)
  end
  begin
     id 30
     name rthumb
     direction -0.707107 -6.34933e-011 0.707107   
     length 0.687685   
     axis -90 -45 -5.69224e-014   XYZ
    dof rx rz
    limits (-45.0 45.0)
           (-45.0 45.0)
  end
:hierarchy
  begin
    root lhipjoint rhipjoint lowerback
    lhipjoint lfemur
    lfemur ltibia
    ltibia lfoot
    lfoot ltoes
    rhipjoint rfemur
    rfemur rtibia
    rtibia rfoot
    rfoot rtoes
    lowerback upperback
    upperback thorax
    thorax lowerneck lclavicle rclavicle
    lowerneck upperneck
    upperneck head
    lclavicle lhumerus
    lhumerus lradius
    lradius lwrist
    lwrist lhand lthumb
    lhand lfingers
    rclavicle rhumerus
    rhumerus rradius
    rradius rwrist
    rwrist rhand rthumb
    rhand rfingers
  end

#!OML:ASF E:\pregnant2\Project 1\Capture day 1\Session 1\pregnant2.ASF
:FULLY-SPECIFIED
:DEGREES
855
root 5.53035 24.3964 -20.5203 27.4712 0.0303101 3.23007
lowerback -7.73288 -1.69726 -5.40419
upperback -11.7272 -2.15347 0.166568
thorax -7.88974 -0.629642 3.17062
lowerneck -11.1003 -0.966537 -5.5974
upperneck 50.5049 2.54851 -4.09759
head 23.936 -0.707877 -0.723105
rclavicle 8.61964e-015 1.2275e-014
rhumerus -53.9508 8.22658 -78.6457
rradius 43.6726
rwrist 6.34434
rhand -11.7842 -13.0486
rfingers 7.12502
rthumb 14.2649 -42.5387
lclavicle 8.61964e-015 1.2275e-014
lhumerus -47.5933 -0.884066 81.1181
lradius 50.0433
lwrist 7.48379
lhand -13.8527 28.5245
lfingers 7.12502
lthumb 12.2712 58.1445
rfemur -64.3851 0.416806 16.2447
rtibia 40.2679
rfoot 4.56792 -19.8279
rtoes 10.2672
lfemur -38.9578 -6.57618 -30.4388
ltibia 40.66
lfoot -20.8584 20.7394
ltoes -11.0924
856
root 5.52235 24.3738 -20.4374 27.2375 0.295683 3.35184
lowerback -7.71415 -1.76175 -5.44952
upperback -11.8517 -2.24091 0.210235
thorax -8.03059 -0.660452 3.24387
lowerneck -10.5179 -0.948147 -5.7303
upperneck 50.5948 2.54464 -4.04577
head 23.7726 -0.724423 -0.665888
rclavicle -5.00961e-015 -7.95139e-016
rhumerus -54.6961 8.1378 -78.3071
rradius 43.3537
rwrist 6.17665
rhand -11.8671 -13.0807
rfingers 7.12502
rthumb 14.1851 -42.5764
lclavicle -5.00961e-015 -7.95139e-016
lhumerus -48.0506 -1.09154 81.2673
lradius 50.3873
lwrist 7.34695
lhand -13.3688 28.7038
lfingers 7.12502
lthumb 12.7376 58.2953
rfemur -63.5583 1.03089 15.2855
rtibia 39.0717
rfoot 4.29536 -21.4113
rtoes 11.6561
lfemur -38.6063 -6.36158 -30.6168
ltibia 41.091
lfoot -21.1316 20.5737
ltoes -11.816
857
root 5.51267 24.3379 -20.3541 27.0472 0.542935 3.46389
lowerback -7.69085 -1.82826 -5.56252
upperback -11.8447 -2.32337 0.287095
thorax -8.02339 -0.688299 3.38794
lowerneck -10.4355 -0.965728 -5.84326
upperneck 50.6492 2.5374 -4.01662
head 23.7941 -0.745204 -0.629965
rclavicle -8.73954e-015 -8.15017e-015
rhumerus -55.0277 7.96993 -77.8411
rradius 42.9198
rwrist 6.08708
rhand -11.8346 -13.0111
rfingers 7.12502
rthumb 14.2164 -42.5045
lclavicle -8.73954e-015 -8.15017e-015
lhumerus -48.1414 -1.19655 81.4406
lradius 50.6439
lwrist 7.18946
lhand -13.1863 28.6823
lfingers 7.12502
lthumb 12.9136 58.2628
rfemur -62.8159 1.71011 14.3432
rtibia 37.97
rfoot 4.05121 -23.0354
rtoes 12.8898
lfemur -38.317 -6.22812 -30.7451
ltibia 41.6201
lfoot -21.5506 20.4016
ltoes -12.0508
858
root 5.50456 24.3063 -20.2704 26.8501 0.818036 3.52928
lowerback -7.73203 -1.87945 -5.62215
upperback -11.6408 -2.37514 0.360488
thorax -7.76054 -0.717479 3.49256
lowerneck -10.8894 -1.01675 -5.8843
upperneck 50.657 2.52972 -4.02755
head 24.006 -0.760416 -0.634356
rclavicle 7.47151e-015 1.2424e-014
rhumerus -55.0036 7.76412 -77.4017
rradius 42.5631
rwrist 5.90594
rhand -11.7605 -13.3279
rfingers 7.12502
rthumb 14.2878 -42.8163
lclavicle 7.47151e-015 1.2424e-014
lhumerus -47.7932 -1.26292 81.6006
lradius 50.8324
lwrist 7.03877
lhand -12.9202 28.7375
lfingers 7.12502
lthumb 13.1702 58.3015
rfemur -62.0084 2.47996 13.3879
rtibia 36.9603
rfoot 3.17854 -24.7475
rtoes 15.5503
lfemur -38.0912 -6.15356 -30.8123
ltibia 42.2077
lfoot -21.7828 20.4157
ltoes -12.8931
859
root 5.49544 24.2623 -20.1847 26.6907 1.04898 3.60164
lowerback -7.78986 -1.95403 -5.7009
upperback -11.6621 -2.46343 0.463513
thorax -7.73734 -0.75027 3.64275
lowerneck -10.744 -1.01762 -5.94582
upperneck 50.7231 2.55895 -4.06722
head 24.0173 -0.765138 -0.640756
rclavicle -5.78339e-015 4.77083e-015
rhumerus -55.4626 7.77976 -77.0405
rradius 42.2299
rwrist 5.79956
rhand -11.8586 -13.2675
rfingers 7.12502
rthumb 14.1933 -42.7627
lclavicle -5.78339e-015 4.77083e-015
lhumerus -47.9596 -1.23253 81.7299
lradius 51.1126
lwrist 6.94381
lhand -12.8031 28.6313
lfingers 7.12502
lthumb 13.2829 58.188
rfemur -61.3166 3.20876 12.5439
rtibia 36.0449
rfoot 2.94024 -26.1157
rtoes 16.4353
lfemur -37.8984 -6.16777 -30.8517
ltibia 42.9527
lfoot -22.3239 20.4151
ltoes -12.9885
860
root 5.48685 24.2224 -20.0979 26.5562 1.2798 3.64755
lowerback -7.72871 -2.01439 -5.75583
upperback -11.7497 -2.54256 0.587171
thorax -7.85666 -0.773117 3.80772
lowerneck -10.6688 -1.00572 -6.03765
upperneck 50.8119 2.63716 -4.11477
head 24.0865 -0.760112 -0.637379
rclavicle 1.74061e-014 3.97569e-016
rhumerus -55.8732 7.80883 -76.6469
rradius 41.7906
rwrist 5.69665
rhand -11.9458 -13.174
rfingers 7.12502
rthumb 14.1092 -42.675
lclavicle 1.74061e-014 3.97569e-016
lhumerus -48.2085 -1.22724 81.9269
lradius 51.344
lwrist 6.67158
lhand -12.3786 29.1617
lfingers 7.12502
lthumb 13.6921 58.6912
rfemur -60.6127 4.00293 11.6691
rtibia 35.2304
rfoot 1.97929 -27.3304
rtoes 18.9175
lfemur -37.7923 -5.97926 -30.9414
ltibia 43.7088
lfoot -22.6292 20.5327
ltoes -13.9656
861
root 5.47692 24.1673 -20.0084 26.4777 1.52901 3.69716
lowerback -7.95545 -2.04513 -5.70566
upperback -11.724 -2.56592 0.60575
thorax -7.69642 -0.793556 3.78987
lowerneck -10.5776 -1.05079 -6.11322
upperneck 50.818 2.55178 -4.05669
head 24.0486 -0.797166 -0.605506
rclavicle -2.86654e-014 -3.69739e-014
rhumerus -56.241 7.68646 -76.3388
rradius 41.4735
rwrist 5.55061
rhand -11.9912 -13.1774
rfingers 7.12502
rthumb 14.0655 -42.6815
lclavicle -2.86654e-014 -3.69739e-014
lhumerus -48.2449 -1.30807 82.0153
lradius 51.5127
lwrist 6.38021
lhand -13.1231 26.512
lfingers 7.12502
lthumb 12.9746 56.0886
rfemur -60.0697 4.67743 10.9431
rtibia 34.5316
rfoot 1.65039 -28.1862
rtoes 20.2559
lfemur -37.7692 -5.94822 -30.9706
ltibia 44.5749
lfoot -23.0716 20.6712
ltoes -14.4345
862
root 5.46686 24.1208 -19.9163 26.2291 1.79921 3.75686
lowerback -7.95505 -2.10572 -5.732
upperback -11.8131 -2.64375 0.685992
thorax -7.78486 -0.821111 3.89049
lowerneck -10.1451 -1.02447 -6.16213
upperneck 50.8958 2.58292 -4.08173
head 23.9429 -0.793285 -0.602721
rclavicle 3.26069e-014 5.76476e-015
rhumerus -56.9057 7.78974 -76.0432
rradius 41.1723
rwrist 5.39661
rhand -12.0207 -13.1469
rfingers 7.12502
rthumb 14.037 -42.6529
lclavicle 3.26069e-014 5.76476e-015
lhumerus -48.6714 -1.33879 82.1559
lradius 51.7199
lwrist 6.15862
lhand -13.1553 26.2139
lfingers 7.12502
lthumb 12.9435 55.7924
rfemur -59.2492 5.35209 10.2559
rtibia 33.9287
rfoot 1.72326 -28.4639
rtoes 20.6822
lfemur -37.4985 -5.95029 -30.9933
ltibia 45.4269
lfoot -23.6575 20.8003
ltoes -14.942
863
root 5.45586 24.0628 -19.8243 26.1391 2.10811 3.86694
lowerback -7.98105 -2.18761 -5.77049
upperback -11.7845 -2.74591 0.734985
thorax -7.72349 -0.869071 3.95997
lowerneck -10.3974 -1.04562 -6.17934
upperneck 50.9511 2.5854 -4.07077
head 24.1163 -0.797573 -0.597847
rclavicle 2.60905e-015 2.16675e-014
rhumerus -57.0675 7.73426 -75.751
rradius 40.7444
rwrist 5.33653
rhand -11.8226 -13.4002
rfingers 7.12502
rthumb 14.2279 -42.8929
lclavicle 2.60905e-015 2.16675e-014
lhumerus -48.6485 -1.29429 82.2573
lradius 51.8391
lwrist 5.96463
lhand -14.1044 24.8354
lfingers 7.12502
lthumb 12.0284 54.4698
rfemur -58.6459 5.92201 9.58113
rtibia 33.4517
rfoot 2.05875 -28.4741
rtoes 20.6075
lfemur -37.4336 -5.98885 -31.0462
ltibia 46.3417
lfoot -24.2745 20.9089
ltoes -15.3896
864
root 5.44499 24.0036 -19.7334 26.0511 2.26404 3.91716
lowerback -8.14029 -2.2057 -5.79982
upperback -11.7628 -2.754 0.779086
thorax -7.60538 -0.872741 4.01603
lowerneck -10.4134 -1.06191 -6.20634
upperneck 50.9786 2.57934 -4.07722
head 24.1552 -0.804587 -0.598464
rclavicle 1.27533e-014 -1.59028e-015
rhumerus -57.3537 7.69506 -75.4517
rradius 40.3864
rwrist 5.30889
rhand -11.8224 -13.4905
rfingers 7.12502
rthumb 14.2281 -42.9831
lclavicle 1.27533e-014 -1.59028e-015
lhumerus -48.7092 -1.26141 82.3553
lradius 51.9589
lwrist 5.63828
lhand -13.0114 26.1892
lfingers 7.12502
lthumb 13.0823 55.7589
rfemur -58.1241 6.41532 9.14148
rtibia 33.0758
rfoot 2.97717 -28.1055
rtoes 19.4368
lfemur -37.3823 -5.91003 -31.1006
ltibia 47.2451
lfoot -24.829 21.134
ltoes -16.0934
865
root 5.43312 23.9414 -19.6394 26.0403 2.44707 4.02753
lowerback -8.30886 -2.30467 -5.93069
upperback -11.88 -2.86856 0.88475
thorax -7.62171 -0.911147 4.19498
lowerneck -10.1949 -1.03334 -6.29457
upperneck 51.0416 2.65146 -4.10688
head 24.1302 -0.797579 -0.584025
rclavicle -1.02623e-014 -1.76918e-014
rhumerus -57.7623 7.89004 -75.1964
rradius 39.943
rwrist 5.34096
rhand -11.8835 -13.4176
rfingers 7.12502
rthumb 14.1692 -42.9144
lclavicle -1.02623e-014 -1.76918e-014
lhumerus -49.0471 -1.0711 82.4716
lradius 52.0601
lwrist 5.50993
lhand -13.6719 26.354
lfingers 7.12502
lthumb 12.4455 55.9635
rfemur -57.6533 6.76603 8.78038
rtibia 32.8176
rfoot 3.56997 -27.7062
rtoes 18.7935
lfemur -37.3994 -5.80551 -31.2069
ltibia 48.1709
lfoot -25.4065 21.3605
ltoes -16.6932
